<?xml version="1.0" encoding="utf-8"?>
<!-- Generator: Adobe Illustrator 17.0.0, SVG Export Plug-In . SVG Version: 6.00 Build 0)  -->
<!DOCTYPE svg PUBLIC "-//W3C//DTD SVG 1.1//EN" "http://www.w3.org/Graphics/SVG/1.1/DTD/svg11.dtd">
<svg version="1.1" id="Layer_1" xmlns="http://www.w3.org/2000/svg" xmlns:xlink="http://www.w3.org/1999/xlink" x="0px" y="0px"
	 width="348px" height="308px" viewBox="0 0 348 308" enable-background="new 0 0 348 308" xml:space="preserve">
<path id="mobile-phone-3-icon" display="none" fill="#3D4349" d="M303.831,102.407v32.858H200.838
	c-10.123,0-18.328,8.206-18.328,18.328v232.384c0,10.121,8.205,18.327,18.328,18.327h110.325c10.123,0,18.328-8.206,18.328-18.327
	v-283.57H303.831z M304.386,270.534h-96.771v-98.298h96.771V270.534z"/>
<path id="email-4-icon" fill="#0076B8" d="M4.499,28.185v251.631h339.002V28.185H4.499z M303.391,61.166l-129.726,107.21
	L44.296,61.166L303.391,61.166L303.391,61.166z M310.521,246.835H37.48V100.477l136.158,112.805l136.883-113.116V246.835z"/>
</svg>
